
        <svg xmlns="http://www.w3.org/2000/svg" xmlns:xlink="http://www.w3.org/1999/xlink" version="1.1" width="3187.5" height="1328.6164850518683" viewBox="0 -93.75 3187.5 1328.6164850518683">
			
			<g transform="scale(9.375) translate(10, 10)">
				<defs id="SvgjsDefs4139"/><g id="SvgjsG4140" featureKey="5TMTKC-0" transform="matrix(-0.5092531442642212,0,0,0.5092531442642212,79.9527359008789,-10.000000953674316)" fill="#fff"><defs xmlns="http://www.w3.org/2000/svg"/><g xmlns="http://www.w3.org/2000/svg"><path d="M7 122c-8,20 -10,46 -2,81 1,-27 4,-54 2,-81z" style="fill: #3b82f6;"/><path d="M56 70c-10,5 -19,12 -27,19 3,40 -9,73 -18,110 4,-7 8,-15 12,-22 16,-32 33,-63 33,-107z" style="fill: #3b82f6;"/><path d="M114 36c-7,5 -14,9 -21,13 -6,60 -37,89 -68,134 40,-51 80,-74 89,-147z" style="fill: #3b82f6;"/><path d="M157 60c-2,-21 -6,-42 -12,-60 -5,88 -40,112 -97,166 44,-34 84,-51 109,-106z" style="fill: #3b82f6;"/><path d="M150 150c3,-11 6,-23 7,-36 -39,39 -94,49 -135,85 41,-25 86,-28 128,-49z" style="fill: #3b82f6;"/><path d="M105 208c10,-5 18,-13 26,-21 -38,5 -73,5 -110,19 29,-4 55,-1 84,2z" style="fill: #3b82f6;"/><path d="M9 213c25,6 46,8 64,5 -12,-5 -53,-10 -64,-5z" style="fill: #3b82f6;"/></g></g><g id="SvgjsG4141" featureKey="7UBp9i-0" transform="matrix(6.225240707397461,0,0,6.225240707397461,92.90322369982673,-21.50368198162188)" fill="#fff"><path d="M4.14 10.58 l0 2.92 l2.8 0 c0.92 0 1.46 -0.54 1.46 -1.46 s-0.54 -1.46 -1.46 -1.46 l-2.8 0 z M8.68 15.48 c0.56 0.76 1.12 1.52 1.7 2.26 c0.56 0.74 1.12 1.5 1.68 2.26 l-3.66 0 c-0.72 -0.96 -1.42 -1.92 -2.12 -2.88 c-0.7 -0.94 -1.42 -1.9 -2.14 -2.86 l0 5.74 l-3 0 l0 -12.24 l5.8 0 c2.28 0 4.22 1.74 4.22 4.04 c0 1.62 -1 3.04 -2.48 3.68 z M20.2 15 c-0.08 -1.46 -0.74 -2.32 -2.26 -2.32 c-0.42 0 -0.78 0.06 -1.08 0.18 c-0.92 0.42 -1.26 1.2 -1.26 2.16 c0 0.32 0.04 0.62 0.14 0.88 c0.3 1.04 1.2 1.42 2.2 1.42 c1.52 0 2.26 -0.82 2.26 -2.32 z M24 20 l-3 0 c-0.2 -0.5 -0.38 -1 -0.5 -1.52 c-0.68 1.12 -1.72 1.62 -3 1.62 c-2.86 0 -4.9 -2.4 -4.9 -5.14 c0 -3.16 2.36 -5.06 5.34 -5.06 c3.18 0 5.18 2.04 5.26 5.1 c0.02 0.26 0.02 0.56 0.02 0.92 c0 1.4 0.22 2.8 0.78 4.08 z M25.099999999999998 10 l3 0 l0 10 l-3 0 l0 -10 z M26.599999999999998 9.06 c-1.02 0 -1.74 -0.72 -1.74 -1.74 c0 -1.04 0.72 -1.72 1.74 -1.72 c1.04 0 1.72 0.68 1.72 1.72 c0 1.06 -0.66 1.74 -1.72 1.74 z M35.6 10.34 l0 2.78 l-2.46 0 l0 6.88 l-3 0 l0 -9.98 c0 -3.32 2.44 -5.12 5.52 -5.12 c0.1 0 0.24 0 0.38 0.02 s0.3 0.06 0.44 0.08 l0 2.9 c-0.1 -0.02 -0.22 -0.04 -0.36 -0.06 s-0.26 -0.04 -0.36 -0.04 c-0.5 0 -0.9 0.06 -1.24 0.16 c-0.56 0.2 -1.06 0.58 -1.24 1.18 c-0.1 0.26 -0.14 0.56 -0.14 0.86 l0 0.34 l2.46 0 z"/></g>
			</g>
		</svg>
	